<svg version="1" xmlns="http://www.w3.org/2000/svg" width="346.667" height="346.667" viewBox="0 0 260.000000 260.000000"><path d="M0 130v130h260V0H0v130zm146.5-68.6c1.4 2.3-1.3 4.2-7.3 5.1-7 1-10.8 3.2-12.9 7.3-1.7 3.4-1.8 7.6-2.1 52.7-.2 26.9-.1 51.4.3 54.3 1.1 8.9 2.2 9.5 18.3 9 9.9-.3 15.1-.9 18.7-2.2 5.2-1.9 12.5-6.5 16.1-10 3.4-3.4 10-12.8 12.8-18 1.4-2.7 3.1-5.5 3.7-6.2 1.5-1.8 4.8-1.8 5.5-.1.5 1.5-1.6 16.7-4.8 33.3l-2 11.1-59.9-.1-59.9-.1v-2.2c0-1.6.8-2.4 2.8-2.9 8.5-1.9 10.8-2.8 13.3-5.3 5.1-5.2 5.3-7.6 5.4-58.6 0-42.7-.2-47.4-1.8-51.6-2.4-6.4-5.6-9.1-12.5-10.4-5-1-5.7-1.4-6-3.7-.2-1.9.2-2.7 1.4-3 1-.1 17.1-.3 35.8-.2 30.9.1 34.1.3 35.1 1.8z"/></svg>